<svg xmlns="http://www.w3.org/2000/svg" width="64" height="64" viewBox="0 0 64 64"><title>Hakata yatai stall</title><g transform="scale(0.0625)"><g transform="translate(0.000000,1024.000000) scale(0.100000,-0.100000)" fill="#000" stroke="none"> <path d="M7340 8930 c-776 -71 -1608 -128 -3455 -240 -1229 -75 -1249 -76 -1289 -95 -21 -10 -48 -34 -62 -54 -49 -76 -58 -224 -15 -281 l22 -30 -48 -21 c-26 -12 -69 -29 -95 -39 -25 -11 -160 -67 -300 -126 -239 -101 -326 -138 -713 -306 -217 -94 -568 -256 -634 -293 -92 -51 -116 -106 -100 -222 11 -80 37 -125 86 -148 34 -16 54 -17 269 -5 128 6 237 9 242 6 6 -3 15 -27 21 -53 8 -36 8 -63 -2 -108 l-12 -60 -75 -6 c-121 -8 -155 -39 -166 -149 -6 -69 -7 -70 -48 -94 -52 -30 -118 -100 -145 -155 -46 -90 -51 -140 -51 -578 0 -268 4 -431 11 -465 25 -115 114 -240 202 -281 l37 -18 0 -69 c0 -59 4 -73 26 -99 38 -46 78 -53 266 -49 150 3 169 5 195 24 40 29 63 80 63 141 0 52 1 53 54 93 61 45 109 108 139 184 19 47 21 82 28 421 7 390 5 528 -13 610 -20 95 -72 173 -151 231 -46 34 -47 35 -47 90 0 65 -21 116 -58 140 -16 11 -55 20 -97 23 l-70 6 2 109 c0 59 5 112 10 116 10 10 436 31 444 22 9 -9 28 -1237 31 -2002 l3 -614 -40 -8 c-22 -5 -160 -26 -306 -47 -147 -22 -280 -46 -296 -55 -76 -39 -84 -198 -13 -261 20 -19 42 -21 304 -27 154 -4 287 -10 294 -13 9 -3 12 -65 12 -260 l0 -256 -47 -20 c-27 -11 -61 -32 -76 -47 -53 -50 -61 -77 -61 -202 0 -99 3 -121 21 -156 13 -23 39 -52 58 -64 20 -12 34 -28 31 -35 -2 -7 -64 -305 -136 -661 -90 -443 -130 -661 -127 -687 10 -76 67 -111 173 -105 65 3 77 7 104 33 36 35 45 65 95 310 20 99 40 183 44 188 9 9 563 -21 574 -32 5 -5 19 -103 32 -218 14 -116 29 -221 34 -235 14 -38 66 -76 114 -83 89 -14 177 32 196 102 7 23 5 83 -5 181 -9 81 -16 167 -17 192 l-2 45 58 3 c41 2 59 -1 62 -10 3 -8 -8 -97 -25 -198 -38 -233 -38 -268 -3 -311 34 -40 79 -59 140 -59 59 0 112 26 136 69 12 20 32 110 54 244 19 116 38 215 42 218 10 9 491 -17 501 -27 4 -5 16 -79 25 -164 31 -294 40 -325 98 -360 22 -14 50 -20 87 -20 76 0 137 32 164 85 l20 39 -23 203 c-12 111 -20 207 -16 213 3 5 35 10 71 10 48 0 66 -4 70 -15 4 -8 -8 -104 -26 -212 -18 -109 -30 -215 -27 -236 7 -54 32 -86 84 -109 57 -25 141 -21 181 9 50 37 62 75 99 295 19 117 38 216 41 220 10 9 543 -19 553 -29 4 -4 19 -104 33 -221 26 -226 35 -256 88 -295 18 -14 48 -22 85 -25 78 -5 140 26 167 83 19 39 20 43 2 220 -10 98 -20 194 -23 212 l-6 33 56 0 c31 0 58 -3 61 -8 2 -4 -10 -104 -27 -222 l-31 -215 21 -47 c28 -62 67 -82 155 -83 74 0 109 18 140 72 11 17 31 115 52 241 19 116 36 215 39 219 7 11 546 -11 556 -23 5 -5 21 -110 35 -234 19 -155 32 -234 44 -255 20 -35 93 -75 137 -75 48 0 102 19 135 46 50 42 53 79 29 281 -12 98 -22 198 -23 222 l-1 44 130 -2 c71 -1 137 -7 147 -12 17 -9 18 -29 18 -254 l0 -243 25 -31 c32 -38 89 -48 164 -29 38 9 60 21 75 41 20 27 21 41 23 309 1 154 5 284 10 288 8 8 349 154 496 213 91 36 97 33 97 -49 0 -69 26 -214 52 -294 70 -216 178 -331 340 -360 73 -14 175 7 261 52 162 86 260 255 319 552 18 90 22 144 22 286 -1 200 -19 307 -79 475 -32 87 -34 100 -21 113 12 12 22 13 60 3 63 -16 74 -14 102 15 l26 25 -3 2007 c-2 1232 1 2006 7 2006 5 -1 67 -18 137 -38 71 -20 138 -36 150 -36 35 0 87 38 102 75 18 41 45 203 45 265 0 82 -22 101 -308 277 -142 87 -558 338 -925 558 -366 220 -666 405 -667 410 0 6 13 17 28 26 47 27 66 81 67 189 0 77 -4 102 -21 134 -33 64 -63 81 -152 83 -42 1 -169 -7 -282 -17z m273 -170 c-3 -36 -1 -77 7 -104 16 -57 6 -75 -26 -45 -26 24 -12 24 -324 -1 -362 -29 -1471 -101 -2825 -185 -401 -25 -867 -54 -1035 -65 -168 -11 -388 -24 -490 -28 -172 -8 -189 -10 -237 -35 -29 -15 -57 -27 -63 -27 -12 0 -4 57 10 75 5 6 18 35 29 66 12 31 29 63 39 71 13 12 55 17 167 22 256 12 2289 137 2940 181 470 32 1198 87 1453 109 147 13 288 24 314 25 l48 1 -7 -60z m-81 -507 c231 -315 378 -521 384 -537 7 -18 -34 -22 -536 -46 -223 -11 -437 -21 -477 -24 -39 -2 -73 -2 -76 0 -2 3 47 116 110 252 63 136 146 317 186 402 39 85 75 160 80 167 5 7 32 14 60 16 29 2 62 4 74 5 17 2 55 -43 195 -235z m-442 206 c0 -13 -87 -208 -195 -439 -40 -85 -96 -203 -123 -262 -37 -78 -57 -110 -74 -116 -31 -12 -740 -44 -749 -35 -7 8 158 226 443 586 84 106 162 204 173 219 20 26 20 26 245 41 124 8 237 15 253 16 15 0 27 -4 27 -10z m885 -264 c1339 -805 1395 -839 1375 -843 -15 -2 -676 185 -1080 306 l-195 58 -130 181 c-71 99 -187 260 -257 356 -71 97 -128 179 -128 182 0 9 16 -1 415 -240z m-1528 221 c-3 -8 -95 -129 -204 -268 -108 -139 -250 -321 -315 -404 l-117 -150 -441 -19 c-242 -10 -443 -15 -447 -12 -3 4 0 14 8 23 33 40 734 699 822 773 32 27 36 27 681 70 12 1 16 -4 13 -13z m-837 -55 c0 -4 -98 -100 -217 -212 -272 -254 -390 -366 -523 -496 l-105 -102 -345 -15 c-190 -9 -387 -18 -437 -21 -57 -3 -93 -2 -93 4 0 9 268 227 496 403 114 88 393 303 475 365 l55 43 290 18 c344 23 404 25 404 13z m-880 -64 c-9 -7 -54 -41 -100 -76 -118 -90 -337 -260 -445 -346 -49 -39 -146 -116 -215 -170 -69 -55 -149 -121 -178 -149 l-52 -49 -308 -13 c-169 -7 -364 -15 -434 -18 -71 -3 -128 -3 -128 1 0 14 509 326 900 553 102 59 241 140 310 181 l125 74 165 11 c91 6 212 12 270 12 84 1 102 -1 90 -11z m-730 -35 c0 -4 -24 -21 -52 -38 -29 -17 -125 -73 -213 -124 -498 -290 -860 -512 -1004 -617 -20 -15 -59 -18 -255 -24 -334 -10 -486 -10 -486 0 0 25 549 321 1172 631 l296 148 219 15 c265 18 323 19 323 9z m-770 -49 c-1 -5 -132 -73 -292 -153 -541 -269 -994 -518 -1087 -595 -25 -21 -39 -25 -98 -25 -86 0 -496 -27 -613 -40 -88 -10 -213 -49 -240 -76 -11 -11 -12 -16 -2 -26 17 -17 221 -15 532 6 129 9 433 20 675 25 242 6 514 13 605 16 379 13 1968 78 2545 105 121 5 328 15 460 20 1008 42 2076 93 2178 105 l48 6 -3 -62 c-3 -61 -4 -63 -33 -70 -16 -4 -210 -15 -430 -23 -220 -9 -614 -25 -875 -36 -1842 -76 -3471 -132 -4315 -150 -280 -5 -600 -15 -710 -20 -110 -6 -328 -17 -485 -25 l-285 -15 -17 21 c-28 33 -23 75 9 96 16 9 46 31 68 49 22 17 76 49 120 71 190 96 1009 452 1590 691 l220 91 130 9 c171 12 305 14 305 5z m5310 -763 c173 -51 419 -121 545 -156 327 -92 375 -106 380 -113 5 -10 -14 -104 -24 -114 -5 -5 -154 34 -337 86 -181 53 -484 139 -674 193 -190 53 -351 101 -357 107 -13 9 -19 118 -7 129 3 3 40 -4 82 -17 42 -13 219 -65 392 -115z m-492 -567 c1 -244 -1 -443 -6 -443 -4 0 -14 22 -21 49 -22 86 -93 183 -177 241 -39 28 -41 32 -48 96 -4 37 -13 79 -22 95 -20 39 -66 61 -144 66 -43 4 -69 11 -77 21 -17 21 -17 226 1 267 l12 30 195 11 c107 6 214 11 239 10 l45 -1 3 -442z m-607 400 c17 -20 25 -226 11 -264 -9 -24 -17 -27 -83 -33 -126 -11 -161 -44 -167 -156 -4 -69 -4 -69 -46 -94 -22 -13 -54 -38 -70 -55 -17 -17 -33 -31 -37 -31 -11 0 -22 611 -11 622 9 9 89 15 353 26 23 1 42 -4 50 -15z m-528 -238 c5 -126 9 -777 10 -1445 l2 -1215 -85 0 -85 0 -3 810 c-3 809 -3 810 19 853 20 41 21 49 10 155 -7 63 -13 321 -14 587 l-2 475 40 6 c22 4 54 6 70 5 l30 -1 8 -230z m1695 120 c222 -63 407 -117 413 -120 11 -8 12 -542 0 -549 -4 -3 -120 12 -257 34 -137 21 -296 44 -353 51 -98 13 -104 12 -117 -6 -20 -27 -17 -59 6 -80 23 -21 32 -23 405 -81 160 -24 300 -49 313 -54 l22 -10 0 -614 c0 -449 -3 -617 -11 -622 -16 -10 -832 -64 -840 -56 -4 4 -9 505 -12 1115 -6 1044 -5 1107 11 1107 10 0 199 -52 420 -115z m-2020 57 c2 -28 -1 -44 -10 -47 -19 -7 -701 -35 -710 -29 -13 8 -9 84 5 89 12 5 683 34 702 30 6 -1 11 -20 13 -43z m-946 -37 c-2 -22 -7 -43 -10 -46 -9 -9 -669 -32 -682 -24 -15 9 -12 85 3 90 14 5 546 23 632 21 l60 -1 -3 -40z m126 -51 c-2 -38 -7 -69 -13 -69 -11 0 -19 119 -10 143 13 34 26 -8 23 -74z m-1050 19 l-3 -48 -95 -6 c-52 -4 -203 -8 -335 -10 l-240 -4 0 40 0 40 70 7 c39 5 178 12 310 16 132 5 253 10 268 10 27 2 28 1 25 -45z m130 -49 c-2 -38 -7 -69 -13 -69 -11 0 -19 119 -10 143 13 34 26 -8 23 -74z m-1033 11 l0 -40 -160 -6 c-88 -4 -239 -8 -335 -10 l-175 -4 -3 34 c-2 18 1 38 6 43 11 11 338 26 537 24 l130 -1 0 -40z m130 -36 c0 -59 -3 -74 -15 -74 -11 0 -16 15 -18 64 -3 71 2 95 21 88 8 -2 12 -27 12 -78z m-1027 13 c3 -26 -1 -34 -20 -41 -14 -5 -166 -11 -339 -13 l-314 -3 0 40 0 40 175 5 c96 3 247 6 335 5 l160 0 3 -33z m-840 -277 c3 -293 -7 -499 -34 -677 -7 -54 -14 -109 -14 -123 0 -40 48 -84 100 -93 l45 -8 0 -709 0 -710 -100 0 -100 0 -7 575 c-4 316 -12 900 -19 1297 -6 397 -8 727 -4 733 4 7 31 10 68 8 l62 -3 3 -290z m960 219 c-2 -32 -7 -59 -13 -59 -11 0 -19 99 -10 123 12 32 26 -6 23 -64z m3579 4 c4 -7 11 -155 14 -328 4 -173 13 -373 19 -443 7 -74 9 -132 4 -137 -13 -13 -753 -45 -765 -33 -8 8 -36 226 -80 638 -6 55 -16 106 -21 113 -13 16 -53 16 -66 -1 -6 -6 -29 -179 -53 -382 -23 -204 -45 -373 -49 -378 -11 -12 -642 -28 -656 -16 -7 6 -15 34 -19 62 -3 29 -21 193 -40 365 -19 172 -37 317 -40 322 -9 14 -51 12 -63 -3 -6 -7 -25 -127 -42 -267 -55 -446 -58 -472 -67 -481 -4 -4 -151 -11 -325 -15 -268 -6 -318 -5 -322 7 -3 8 -22 172 -42 364 -37 354 -43 385 -80 385 -31 0 -43 -53 -79 -355 -20 -170 -40 -330 -44 -355 l-6 -45 -70 -6 c-126 -12 -573 -10 -581 2 -3 6 -22 167 -41 357 -19 191 -40 353 -45 360 -17 20 -57 14 -68 -10 -5 -13 -28 -171 -51 -353 -23 -181 -46 -338 -51 -347 -8 -17 -36 -18 -368 -18 -197 0 -361 4 -364 9 -3 4 -1 35 4 67 24 148 33 268 39 519 l6 270 363 9 363 8 28 -26 c20 -20 37 -26 70 -26 34 0 47 6 69 30 l28 30 352 11 353 12 28 -27 c21 -20 37 -26 70 -26 34 0 48 6 70 29 l27 29 353 11 353 12 23 -25 c20 -22 33 -26 79 -26 48 0 57 3 78 29 l23 29 357 13 358 12 25 -27 c20 -22 33 -26 76 -26 44 0 55 4 78 29 l28 30 324 11 c178 6 329 13 334 15 25 9 95 4 102 -7z m1033 -177 c21 -6 25 -13 25 -41 l0 -35 -175 0 -175 0 0 35 c0 31 4 36 30 41 40 9 264 9 295 0z m-6235 -129 c38 -7 40 -9 40 -42 l0 -35 -160 0 -160 0 0 35 c0 33 2 35 40 41 57 9 193 9 240 1z m6343 -95 c49 -27 105 -87 133 -143 l24 -49 0 -505 0 -505 -28 -57 c-35 -72 -104 -133 -170 -153 -73 -22 -395 -21 -459 1 -67 22 -122 75 -160 152 l-33 67 -3 468 c-2 406 -1 477 13 524 20 70 53 122 102 162 65 54 103 61 338 58 181 -2 215 -5 243 -20z m-6266 -109 c56 -16 121 -78 149 -140 l24 -53 0 -460 0 -460 -32 -66 c-35 -70 -80 -111 -144 -129 -19 -6 -115 -10 -214 -10 -175 0 -183 1 -233 26 -55 27 -98 74 -128 139 -17 37 -19 76 -22 463 -2 286 1 442 8 478 21 100 110 198 197 214 64 13 352 11 395 -2z m6566 -2275 l-3 -1916 -185 -77 c-102 -42 -228 -95 -280 -117 -52 -23 -98 -39 -102 -37 -5 3 -8 75 -8 159 l0 154 28 15 c16 8 88 38 161 66 88 35 137 59 146 74 13 20 15 191 15 1293 l1 1270 44 32 c24 17 62 59 85 94 73 112 74 116 78 535 2 228 7 372 12 372 7 0 9 -701 8 -1917z m-3218 1830 c0 -62 29 -109 78 -130 32 -13 74 -15 317 -8 154 4 315 10 358 15 67 6 83 12 108 36 16 16 33 41 37 56 10 39 22 39 36 -2 6 -20 25 -44 45 -57 41 -28 54 -28 486 -8 171 7 313 10 318 6 4 -4 6 -263 5 -577 l-3 -569 -75 0 -75 0 -3 45 c-2 25 -1 68 3 97 6 51 7 52 46 58 27 5 45 15 56 32 15 23 15 28 2 52 -10 18 -25 28 -49 31 -32 5 -35 8 -41 45 -7 51 -23 81 -56 103 -23 14 -59 18 -236 22 l-210 5 -12 47 c-13 54 -27 74 -67 94 -40 21 -136 28 -185 15 -61 -17 -92 -47 -107 -106 l-12 -50 -210 -5 c-178 -4 -214 -8 -237 -22 -33 -22 -46 -47 -55 -101 -7 -37 -11 -42 -37 -45 -38 -5 -65 -28 -65 -57 0 -30 28 -53 70 -57 l35 -3 0 -94 0 -93 -416 1 c-399 2 -417 1 -440 -18 -23 -19 -24 -23 -29 -208 l-5 -188 -80 -3 c-44 -1 -120 1 -170 5 l-90 8 -5 106 c-5 96 -9 110 -33 142 -20 26 -27 47 -27 80 0 59 -24 80 -99 87 l-56 5 -3 515 c-2 475 -1 516 15 528 10 7 46 12 85 12 42 0 80 6 98 15 30 15 60 61 60 90 0 27 18 16 30 -19 6 -18 22 -44 36 -57 l26 -24 354 2 c326 1 357 3 391 20 45 23 73 74 73 130 0 24 5 43 10 43 6 0 10 -21 10 -47z m-1810 -66 c0 -27 23 -62 53 -79 12 -7 60 -15 107 -18 l85 -5 3 -490 c2 -419 0 -494 -13 -521 -8 -18 -15 -52 -15 -76 -1 -27 -8 -51 -19 -65 -11 -13 -22 -23 -25 -23 -3 0 -6 27 -6 61 0 35 -7 75 -16 94 -15 32 -14 39 20 165 38 145 37 174 -9 186 -43 11 -60 -16 -86 -131 -12 -58 -27 -105 -32 -105 -5 0 -7 14 -3 30 3 17 9 73 12 125 6 83 5 98 -11 115 -23 26 -47 25 -71 -1 -14 -16 -20 -44 -25 -137 -4 -64 -8 -134 -8 -154 -1 -21 -5 -38 -10 -38 -4 0 -11 48 -15 106 -10 151 -21 205 -42 221 -24 17 -29 17 -59 -10 l-27 -22 12 -85 c6 -47 13 -100 17 -117 3 -18 1 -33 -3 -33 -5 0 -20 45 -33 100 -27 110 -45 136 -86 126 -48 -12 -49 -39 -6 -181 38 -123 39 -131 23 -148 -14 -16 -18 -50 -22 -221 l-5 -201 -205 0 -205 0 0 715 0 715 310 5 c264 4 315 7 336 21 23 15 40 42 53 82 8 25 26 21 26 -6z m494 -599 c0 -274 -3 -501 -6 -504 -3 -3 -14 -1 -25 5 -10 6 -34 14 -53 19 l-35 8 -3 475 c-1 261 0 480 3 487 3 9 22 12 62 10 l58 -3 -1 -497z m2331 -63 c0 -17 -8 -20 -54 -23 -57 -3 -78 7 -67 33 4 13 18 15 63 13 50 -3 58 -6 58 -23z m520 -170 c0 -20 -8 -20 -574 -23 -350 -1 -579 2 -584 7 -5 5 -7 17 -4 25 6 15 66 16 584 14 570 -3 578 -3 578 -23z m710 5 c10 -11 39 -33 65 -50 l48 -31 4 -69 c3 -50 9 -77 24 -97 39 -52 63 -58 254 -58 96 1 192 4 213 8 l37 8 -2 -268 -3 -268 -330 4 c-181 2 -333 5 -337 8 -11 6 -10 833 0 833 5 0 17 -9 27 -20z m-5640 -140 l0 -35 -155 0 c-155 0 -155 0 -158 23 -8 52 -4 53 160 50 l153 -3 0 -35z m6220 0 c0 -34 -1 -35 -50 -42 -78 -10 -241 -9 -269 2 -20 7 -26 17 -26 38 0 16 3 32 7 36 4 3 81 5 172 4 l166 -3 0 -35z m-1310 -105 l0 -100 -195 -2 c-107 -2 -359 0 -560 5 l-365 7 -3 84 c-2 46 -1 90 2 98 5 11 104 13 563 11 l558 -3 0 -100z m2680 -909 l0 -939 -55 -12 c-105 -23 -315 -86 -358 -107 -55 -27 -138 -118 -178 -193 -73 -137 -113 -305 -121 -506 -12 -289 53 -529 173 -639 24 -22 44 -43 44 -45 0 -3 -15 -5 -34 -5 -133 0 -243 153 -291 403 -21 109 -21 344 0 462 40 228 144 438 253 510 24 16 82 35 153 51 141 32 211 55 217 72 7 23 -77 52 -153 52 -135 0 -252 -42 -345 -125 -48 -43 -117 -85 -140 -85 -15 0 -14 1976 1 1985 6 4 126 16 267 26 141 10 302 23 357 28 55 5 125 8 155 7 l55 -1 0 -939z m-5610 789 c0 -12 -40 -19 -61 -11 -9 3 -12 11 -9 16 8 14 70 9 70 -5z m-340 -205 l0 -195 -125 0 -125 0 -3 185 c-1 101 0 190 3 197 3 11 33 13 127 11 l123 -3 0 -195z m630 135 c0 -12 -50 -19 -71 -11 -9 3 -12 11 -9 16 8 14 80 9 80 -5z m1940 -26 c523 -6 956 -12 963 -15 10 -3 12 -40 10 -161 l-3 -158 -160 -2 c-228 -4 -2108 41 -2123 51 -9 5 -12 47 -12 150 0 78 3 146 7 150 4 4 89 5 188 2 99 -3 608 -11 1130 -17z m-2196 -23 c8 -9 11 -59 9 -152 l-3 -139 -80 0 -80 0 -3 134 c-3 163 1 171 88 171 37 0 62 -5 69 -14z m290 -70 c8 -9 11 -50 9 -117 l-3 -104 -85 0 -85 0 4 110 c2 61 5 113 8 118 2 4 35 7 72 7 47 0 72 -5 80 -14z m-999 -298 c24 -17 48 -21 188 -25 152 -6 162 -5 207 17 l47 23 39 -22 c35 -20 53 -22 177 -22 75 0 188 -2 251 -5 92 -5 122 -3 158 11 41 16 78 16 486 6 243 -6 624 -16 847 -21 223 -6 583 -14 800 -20 217 -5 607 -15 865 -21 259 -6 567 -14 685 -17 l215 -7 3 -33 c4 -41 4 -41 -229 -87 -174 -34 -190 -36 -324 -30 -77 3 -441 12 -810 20 -368 9 -960 22 -1315 30 -995 24 -1936 44 -2590 55 -327 6 -728 14 -890 18 l-295 7 0 24 c0 13 7 28 15 32 8 5 141 29 295 54 l280 44 434 -5 c415 -5 435 -6 461 -26z m-692 -496 c2 -181 0 -234 -10 -237 -7 -3 -40 -6 -73 -7 l-59 -3 2 234 c2 129 5 238 8 243 3 5 33 8 67 6 l62 -3 3 -233z m338 228 l114 0 0 -232 0 -233 -152 3 c-84 2 -159 5 -165 7 -10 3 -13 58 -13 228 0 123 3 227 8 231 4 4 27 5 51 2 24 -3 95 -6 157 -6z m642 -16 c9 -2 12 -60 12 -242 0 -204 2 -241 16 -252 12 -11 18 -11 30 2 13 13 16 51 15 244 -1 126 2 234 7 239 4 6 89 8 237 5 l230 -5 0 -235 0 -235 -135 -6 c-193 -10 -324 -36 -422 -85 -89 -45 -112 -100 -106 -255 3 -87 8 -111 28 -147 15 -27 43 -54 73 -73 l49 -30 -6 -52 c-19 -144 -108 -695 -116 -714 -8 -20 -17 -23 -62 -22 -29 1 -64 4 -78 8 -23 6 -26 14 -32 76 -4 39 -24 212 -44 385 -19 173 -36 328 -37 344 -2 25 3 30 38 42 50 18 92 58 116 109 25 53 27 235 4 293 -25 61 -90 102 -208 131 l-72 17 -3 225 c-1 123 0 229 3 237 4 10 50 11 227 6 123 -3 229 -7 236 -10z m1022 -23 l75 -6 5 -290 5 -290 25 0 25 0 5 290 5 290 230 -3 c127 -2 233 -7 238 -11 4 -4 6 -113 5 -241 l-3 -234 -110 -21 c-61 -12 -133 -32 -160 -44 -64 -28 -112 -75 -125 -121 -13 -47 -13 -215 1 -265 12 -42 64 -99 115 -126 l31 -16 -23 -149 c-66 -414 -107 -650 -116 -661 -14 -18 -177 -18 -183 0 -3 6 -16 109 -30 227 -53 459 -65 556 -70 588 -6 30 -3 34 28 47 46 19 94 60 115 99 13 25 17 58 17 162 0 126 -1 132 -28 172 -48 73 -150 110 -369 135 l-113 12 -3 220 c-1 121 0 225 2 232 4 10 45 13 168 12 90 -1 197 -4 238 -8z m3675 -702 l0 -704 -123 -49 c-68 -27 -125 -46 -128 -44 -8 9 -5 1441 3 1449 9 9 223 58 238 55 7 -2 10 -246 10 -707z m-2517 676 c9 -3 12 -60 12 -241 l0 -236 -102 8 c-57 4 -165 7 -240 6 l-138 -2 -2 98 c-3 133 1 354 6 369 4 9 59 10 228 7 123 -3 229 -7 236 -9z m553 -15 c18 -10 19 -24 19 -251 0 -205 2 -240 15 -245 8 -4 22 -1 30 6 12 10 15 55 17 249 l3 236 226 -1 c125 0 234 -4 243 -7 14 -6 16 -33 16 -226 0 -154 -3 -222 -11 -227 -7 -4 -75 -11 -152 -16 -265 -16 -429 -67 -484 -149 -26 -40 -28 -51 -32 -161 -3 -111 -2 -122 23 -172 17 -35 40 -63 66 -80 31 -20 40 -33 40 -54 0 -15 -14 -110 -30 -212 -17 -102 -44 -273 -60 -380 -17 -107 -35 -205 -40 -218 -9 -21 -15 -23 -82 -20 l-73 3 -52 410 c-28 226 -54 425 -57 443 -4 30 -1 35 27 50 48 26 92 75 105 119 7 22 12 87 12 144 -1 161 -27 202 -169 259 l-66 27 -3 229 c-1 126 0 234 2 241 4 10 57 13 226 13 134 0 229 -4 241 -10z m1121 -29 c4 -4 9 -128 10 -276 3 -254 4 -270 22 -273 38 -8 41 10 41 278 0 160 4 263 10 269 6 6 49 7 110 3 l100 -7 0 -970 0 -970 -90 0 c-49 0 -98 4 -107 7 -17 7 -18 36 -18 405 0 269 -4 411 -12 438 -15 54 -15 157 1 230 18 83 10 209 -18 263 -17 34 -33 47 -86 72 -35 17 -93 37 -127 44 -58 13 -202 33 -288 39 l-35 2 -3 220 c-1 121 0 226 3 233 4 12 46 13 243 7 130 -4 240 -10 244 -14z m466 -963 c2 -952 2 -957 -18 -968 -11 -6 -25 -8 -30 -5 -14 9 -14 1874 0 1910 7 17 16 25 28 23 16 -3 17 -59 20 -960z m-4807 477 c107 -16 179 -40 179 -61 0 -17 -77 -40 -200 -60 -63 -10 -161 -15 -290 -15 -211 0 -265 4 -382 28 -90 18 -111 34 -76 57 31 19 131 45 220 55 124 14 444 12 549 -4z m1249 -35 c116 -14 215 -45 235 -72 18 -26 21 -170 5 -213 -24 -64 -202 -98 -500 -98 -275 1 -463 32 -489 82 -11 19 -18 98 -10 106 3 3 25 -1 48 -10 179 -63 719 -62 850 2 27 14 36 24 36 43 l0 25 -110 -5 c-60 -3 -216 -5 -345 -5 -185 1 -254 4 -325 18 -49 10 -101 25 -114 34 l-25 16 22 17 c24 20 125 47 222 59 95 12 402 13 500 1z m1405 -35 c96 -15 190 -49 190 -70 0 -15 -98 -44 -209 -62 -152 -24 -457 -20 -611 6 -115 21 -172 42 -160 61 10 17 120 52 205 65 121 19 460 19 585 0z m1362 -25 c156 -21 241 -50 263 -89 15 -30 13 -177 -5 -210 -28 -56 -138 -86 -358 -100 -247 -15 -554 12 -631 57 -45 26 -56 56 -56 155 0 78 2 90 23 111 26 26 144 61 252 75 99 12 419 13 512 1z m-3817 -116 c0 -55 -12 -79 -48 -98 -46 -23 -161 -44 -309 -56 -236 -18 -559 12 -623 59 -18 13 -26 30 -31 65 -3 26 -2 49 3 52 4 3 33 -2 65 -10 105 -27 226 -38 413 -38 209 0 322 12 436 46 44 13 82 24 87 25 4 0 7 -20 7 -45z m2670 -98 c0 -69 -48 -97 -215 -128 -95 -18 -548 -17 -630 0 -100 22 -154 43 -170 65 -13 19 -22 107 -11 107 3 0 42 -9 88 -20 135 -31 294 -43 493 -37 176 6 314 24 391 51 22 7 42 12 47 9 4 -2 7 -23 7 -47z m-3521 -162 c18 -4 31 -13 31 -22 0 -20 -149 -750 -210 -1031 -27 -123 -55 -230 -61 -237 -15 -19 -68 -18 -75 1 -3 8 15 115 39 237 147 724 208 1016 217 1036 10 24 13 25 59 16z m681 -20 c0 -9 32 -301 71 -651 39 -349 68 -641 65 -649 -3 -7 -17 -16 -31 -20 -55 -14 -60 2 -99 351 -91 799 -107 958 -102 971 4 9 21 14 51 14 34 0 45 -4 45 -16z m-223 -14 c16 -94 62 -535 56 -540 -11 -9 -446 10 -456 20 -7 6 81 479 97 526 3 8 52 11 153 10 123 -1 148 -4 150 -16z m927 -29 c11 -18 -199 -1298 -216 -1319 -6 -7 -25 -12 -42 -10 -51 5 -56 -43 68 733 31 193 63 389 71 438 8 48 15 96 15 106 0 11 4 30 9 43 8 21 14 23 50 20 23 -2 43 -7 45 -11z m619 -138 c81 -679 135 -1198 126 -1215 -11 -21 -61 -25 -77 -5 -7 9 -119 911 -159 1289 -8 68 -1 78 49 78 l43 0 18 -147z m2987 -319 c0 -296 -3 -454 -10 -454 -5 0 -10 2 -10 5 0 3 -22 188 -50 411 -27 223 -50 417 -50 430 0 18 8 27 28 34 15 5 38 16 52 23 14 8 28 12 33 10 4 -2 7 -209 7 -459z m-3228 438 c7 -7 68 -506 68 -556 l0 -29 -197 6 c-108 4 -201 11 -206 16 -5 5 10 121 37 287 26 152 48 280 50 283 5 8 239 1 248 -7z m971 -21 c8 -8 -31 -281 -87 -606 -19 -110 -53 -319 -76 -465 -24 -146 -47 -271 -53 -278 -6 -8 -25 -12 -46 -10 l-36 3 2 52 c3 71 193 1270 208 1312 4 10 15 11 43 6 20 -3 40 -10 45 -14z m654 -61 c23 -141 154 -1265 151 -1295 -2 -22 -10 -32 -30 -39 -48 -17 -62 8 -77 136 -16 144 -105 872 -132 1087 -21 160 -21 165 -3 178 11 8 33 13 49 11 29 -3 30 -5 42 -78z m-233 51 c10 -15 81 -610 74 -616 -4 -4 -91 -3 -195 2 l-188 8 -3 220 c-3 192 8 361 24 387 7 11 282 10 288 -1z m939 -23 c16 -12 14 -34 -33 -328 -28 -173 -76 -477 -107 -675 -31 -198 -60 -366 -66 -372 -14 -19 -76 -16 -84 3 -3 9 9 106 27 217 17 111 40 261 51 332 16 114 107 696 125 798 6 34 10 37 38 37 18 0 40 -6 49 -12z m2840 -27 c20 -22 41 -57 48 -79 11 -38 10 -42 -51 -148 -33 -60 -66 -113 -72 -119 -7 -7 -8 48 -3 180 4 105 9 193 12 198 10 16 32 5 66 -32z m-2162 -176 c73 -550 141 -1145 137 -1191 -3 -36 -5 -39 -37 -42 -18 -2 -38 1 -43 6 -9 9 -178 1324 -178 1389 0 33 16 42 70 39 25 -1 25 -2 51 -201z m-365 185 c99 0 105 -1 114 -22 16 -40 83 -599 72 -610 -11 -11 -443 8 -453 20 -6 7 82 575 95 607 5 13 13 16 37 11 18 -3 78 -6 135 -6z m2337 -198 c-3 -95 -9 -172 -12 -172 -4 0 -29 44 -55 98 l-48 98 20 40 c33 64 83 127 93 117 5 -5 6 -82 2 -181z m291 -84 c3 -13 9 -58 12 -100 7 -77 7 -78 -19 -87 -15 -6 -49 -13 -77 -17 -44 -6 -50 -4 -50 12 0 20 108 214 120 214 4 0 10 -10 14 -22z m-406 -143 c23 -47 42 -94 42 -104 0 -14 -14 -22 -56 -34 -32 -9 -61 -14 -67 -10 -16 10 14 233 32 233 3 0 26 -38 49 -85z m-6127 -124 c31 -6 34 -10 37 -48 l3 -42 -53 5 c-29 2 -149 9 -267 14 -118 5 -218 13 -222 17 -4 4 -1 23 7 42 l14 34 223 -8 c123 -4 239 -10 258 -14z m6541 -111 c-4 -74 -34 -213 -48 -217 -14 -5 -115 239 -104 251 12 12 84 24 125 22 30 -1 30 -1 27 -56z m-5332 32 l135 -7 9 -38 c6 -23 6 -40 0 -45 -11 -10 -444 10 -461 21 -15 10 -16 27 -4 59 10 26 5 26 321 10z m4988 -65 c5 -23 -99 -228 -113 -224 -13 5 -35 112 -32 157 2 30 8 37 56 62 60 31 84 33 89 5z m-3693 2 c190 -9 232 -13 243 -27 13 -17 17 -68 5 -75 -12 -6 -530 20 -542 27 -16 10 -13 47 6 68 19 21 0 21 288 7z m1500 -68 l110 -6 9 -38 c6 -23 6 -40 0 -45 -11 -10 -504 11 -522 22 -15 9 -16 41 -1 67 11 21 25 21 404 0z m2379 -156 c34 -82 46 -122 42 -140 -9 -35 -74 -105 -97 -105 -18 0 -19 10 -19 143 0 140 7 217 19 217 3 0 28 -52 55 -115z m-179 -77 c-8 -127 -10 -135 -31 -117 -8 7 -22 26 -31 42 -14 28 -13 33 18 103 17 41 36 74 41 74 5 0 6 -43 3 -102z m-1247 -194 l-3 -229 -25 0 -25 0 -3 220 c-3 216 -2 220 19 238 13 10 26 14 31 9 5 -5 7 -112 6 -238z M8360 6240 c-19 -19 -20 -33 -20 -438 0 -362 2 -421 16 -440 18 -27 55 -29 77 -4 15 17 17 62 17 440 0 409 -1 423 -20 442 -11 11 -27 20 -35 20 -8 0 -24 -9 -35 -20z M8597 6212 c-15 -17 -17 -61 -17 -424 0 -394 1 -405 20 -423 29 -26 71 -11 82 30 5 17 7 202 5 412 -3 353 -5 384 -22 403 -23 25 -47 26 -68 2z M8827 6182 c-15 -17 -17 -59 -17 -404 0 -360 1 -386 18 -401 24 -22 45 -21 65 1 15 17 17 59 17 404 0 360 -1 386 -18 401 -24 22 -45 21 -65 -1z M7202 6390 c-28 -12 -38 -36 -22 -55 11 -13 56 -15 313 -13 269 3 301 5 310 20 9 13 7 22 -7 37 -18 20 -29 21 -295 20 -152 0 -286 -4 -299 -9z M7182 6098 c-18 -18 -14 -46 8 -58 14 -7 114 -10 301 -9 253 2 282 3 302 20 18 14 20 21 11 36 -10 17 -34 18 -310 21 -225 2 -303 -1 -312 -10z M7182 5818 c-16 -16 -15 -43 2 -57 9 -8 100 -11 311 -9 271 3 299 5 309 21 8 12 8 22 0 35 -10 15 -38 17 -310 20 -225 2 -303 -1 -312 -10z M7184 5529 c-14 -15 -16 -24 -7 -37 9 -15 39 -17 313 -17 274 0 304 2 313 17 9 13 7 22 -7 37 -18 20 -29 21 -306 21 -277 0 -288 -1 -306 -21z M1012 6289 c-18 -7 -23 -15 -20 -36 l3 -28 274 -3 c193 -2 278 1 287 9 20 16 17 47 -5 59 -25 13 -507 12 -539 -1z M995 6010 c-15 -16 -16 -22 -5 -35 11 -13 51 -15 294 -13 l281 3 0 30 0 30 -276 3 c-265 2 -276 2 -294 -18z M996 5751 c-14 -16 -15 -23 -6 -40 11 -21 15 -21 287 -19 250 3 277 5 287 21 8 12 8 22 0 35 -10 15 -37 17 -281 20 -256 2 -271 1 -287 -17z M994 5486 c-3 -8 -4 -23 -2 -33 3 -17 21 -18 282 -18 246 0 280 2 289 16 6 9 7 24 4 33 -6 14 -36 16 -287 16 -235 0 -282 -2 -286 -14z M8762 4878 c-9 -9 -12 -182 -12 -715 0 -619 2 -704 15 -709 8 -4 22 -1 30 6 13 11 15 105 15 709 0 686 -1 721 -30 721 -3 0 -11 -5 -18 -12z M8435 4848 c-3 -7 -4 -344 -3 -748 3 -727 3 -735 23 -735 20 0 20 7 20 745 0 702 -1 745 -18 748 -9 2 -19 -2 -22 -10z M5838 3249 c-25 -14 -22 -46 5 -63 28 -18 118 -41 222 -56 112 -17 399 -15 522 4 148 22 220 63 181 102 -15 15 -27 15 -164 -1 -118 -14 -192 -16 -363 -12 -119 4 -254 13 -301 21 -47 9 -85 16 -85 15 0 0 -8 -4 -17 -10z"/> </g></g></svg>
