<svg xmlns="http://www.w3.org/2000/svg" width="64" height="64" viewBox="0 0 64 64"><title>Canada Place sails</title><g transform="scale(0.0625)"><g transform="translate(0.000000,1024.000000) scale(0.100000,-0.100000)" fill="#000" stroke="none"> <path d="M3481 8123 c-53 -28 -76 -66 -76 -126 0 -38 6 -61 23 -84 14 -19 20 -38 16 -50 -21 -57 -694 -1106 -1189 -1853 l-223 -335 -78 -34 c-44 -18 -199 -82 -345 -141 -312 -126 -382 -160 -427 -203 -61 -58 -75 -99 -80 -229 -5 -131 5 -174 45 -189 l23 -9 -2 -276 -3 -276 -75 -22 c-110 -33 -144 -50 -188 -94 -71 -71 -72 -78 -72 -579 l0 -443 -22 -10 c-13 -5 -49 -12 -80 -15 -82 -9 -88 -21 -88 -165 0 -108 2 -118 22 -137 13 -12 32 -23 43 -25 19 -3 20 -13 25 -197 l5 -193 28 -24 c25 -21 37 -24 117 -24 80 0 92 3 117 24 l28 24 5 204 5 203 90 6 c183 13 778 32 1040 33 l270 1 5 -198 c6 -225 4 -220 90 -232 62 -9 135 3 163 25 21 17 22 27 27 212 l5 193 535 0 535 0 5 -213 c5 -196 7 -215 24 -228 28 -20 79 -27 154 -21 56 4 70 9 89 32 22 25 23 32 23 226 0 152 3 201 13 204 7 3 206 2 442 -2 l430 -8 0 -202 c0 -196 1 -203 22 -225 18 -17 37 -23 88 -26 75 -5 123 2 151 22 17 13 19 32 24 218 l5 203 311 3 c171 1 342 -1 380 -5 l69 -8 5 -192 c5 -184 6 -194 28 -215 20 -21 32 -23 118 -23 92 0 97 1 120 28 23 28 24 32 24 213 0 152 3 186 15 190 8 3 162 2 342 -3 l328 -8 5 -187 c5 -178 6 -189 28 -210 20 -21 32 -23 112 -23 80 0 92 2 112 23 22 21 23 32 28 205 l5 182 261 3 c143 1 278 -1 300 -6 l39 -8 5 -183 c6 -208 4 -204 91 -216 63 -9 126 2 150 26 17 17 19 36 19 194 0 150 2 177 16 182 8 3 115 2 237 -3 l222 -9 5 -163 c5 -157 6 -165 29 -183 18 -15 39 -19 96 -19 58 0 77 4 99 21 l26 20 0 160 0 159 198 -2 197 -3 3 -180 c2 -168 4 -181 24 -202 19 -20 31 -23 95 -23 65 0 77 3 98 25 25 24 25 27 25 195 l0 171 35 33 35 33 0 92 c0 84 -2 94 -25 116 -20 21 -34 25 -85 25 -41 0 -60 4 -60 13 0 6 -1 103 -3 214 -4 202 -4 202 19 224 22 21 24 31 24 120 0 75 -3 99 -16 110 -8 7 -63 20 -122 29 l-107 16 -5 74 c-3 41 -8 80 -12 86 -4 6 -27 16 -51 23 -58 14 -155 80 -213 144 -182 201 -340 571 -483 1131 -51 197 -131 557 -131 587 0 9 7 30 15 45 33 64 5 143 -60 164 -45 15 -82 6 -117 -27 -37 -35 -45 -81 -22 -128 15 -33 16 -40 3 -61 -17 -28 -285 -369 -418 -532 -51 -62 -98 -111 -104 -109 -22 7 -140 436 -232 843 l-36 162 20 33 c29 47 27 100 -4 138 -66 77 -180 55 -205 -40 -10 -36 -3 -66 27 -120 5 -8 -114 -163 -353 -460 -208 -260 -245 -302 -255 -292 -21 22 -168 586 -253 967 l-44 198 25 48 c29 56 26 94 -13 140 -52 61 -137 60 -188 -1 -37 -43 -42 -88 -17 -137 12 -23 21 -45 21 -50 0 -5 -15 -29 -34 -53 -307 -403 -603 -774 -619 -774 -12 0 -24 36 -111 350 -91 325 -133 493 -222 892 l-25 112 20 28 c46 65 30 145 -38 190 -56 38 -125 25 -170 -33 -32 -41 -36 -86 -12 -137 12 -24 21 -51 21 -61 0 -21 -10 -36 -246 -351 -226 -304 -522 -679 -537 -683 -16 -3 -152 434 -277 893 -28 105 -69 253 -90 330 -60 214 -140 523 -140 538 0 7 9 30 20 52 24 46 25 74 6 119 -29 69 -120 103 -185 69z m97 -85 c7 -7 12 -27 12 -45 0 -57 -71 -73 -99 -22 -13 24 -13 29 2 53 19 28 63 36 85 14z m-9 -433 c22 -434 31 -921 31 -1627 0 -581 -2 -708 -13 -708 -8 0 -46 11 -86 25 -257 87 -695 144 -1176 152 -292 5 -595 -6 -640 -24 -8 -3 -15 -1 -15 3 0 5 78 40 173 78 225 90 465 209 602 301 121 80 269 214 368 333 288 346 568 998 698 1627 13 63 27 91 40 78 4 -4 12 -111 18 -238z m-218 -137 c-90 -319 -182 -559 -311 -813 -90 -180 -183 -328 -279 -447 -76 -95 -218 -231 -306 -293 -93 -67 -276 -175 -286 -170 -4 3 86 146 200 318 262 395 484 737 851 1311 90 142 166 253 168 247 2 -6 -15 -75 -37 -153z m358 -186 c224 -840 448 -1540 612 -1911 135 -303 291 -544 462 -714 38 -38 67 -70 65 -72 -2 -2 -57 12 -123 31 -176 51 -414 110 -582 144 -81 17 -158 34 -169 39 -17 7 -24 24 -34 75 -24 127 -100 244 -207 318 l-43 29 0 517 c0 549 -16 1585 -25 1640 -3 17 -2 32 2 32 4 0 23 -57 42 -128z m1352 27 c20 -20 19 -48 -3 -76 -16 -20 -55 -15 -72 9 -21 30 -20 44 4 68 25 25 45 25 71 -1z m-27 -316 c11 -243 19 -2433 9 -2433 -13 0 -85 52 -155 112 -172 148 -372 455 -512 785 l-47 113 54 67 c137 172 289 451 394 723 95 245 189 542 223 703 6 31 15 57 20 57 4 0 11 -57 14 -127z m-148 -60 c-123 -410 -223 -669 -348 -903 -81 -153 -218 -360 -237 -360 -9 0 -45 93 -103 266 l-31 92 144 182 c256 325 277 352 421 546 79 106 147 193 151 193 5 1 6 -7 3 -16z m262 -160 c69 -290 86 -367 107 -488 29 -169 84 -370 174 -645 149 -450 286 -745 464 -994 75 -106 251 -295 317 -341 39 -27 50 -48 30 -60 -9 -5 -636 110 -725 133 -25 6 -31 14 -36 46 -3 20 -13 44 -20 52 -8 8 -78 25 -158 39 -79 14 -147 27 -151 30 -4 2 -10 420 -13 927 -4 508 -10 1019 -14 1136 -4 136 -3 212 4 212 5 0 15 -21 21 -47z m1092 7 c24 -24 24 -29 4 -58 -23 -33 -65 -26 -79 12 -8 24 -6 31 14 47 29 24 36 24 61 -1z m-16 -302 c10 -210 19 -2088 10 -2088 -17 0 -190 183 -252 266 -107 142 -206 318 -294 523 -48 113 -48 114 -29 135 34 38 148 219 204 326 99 188 199 455 272 720 20 74 43 159 51 188 8 28 18 52 23 52 5 0 11 -55 15 -122z m-144 -22 c0 -3 -16 -60 -35 -128 -70 -243 -149 -448 -246 -638 -65 -127 -173 -300 -188 -300 -11 0 -31 52 -86 220 l-38 116 184 230 c101 127 231 292 289 367 91 118 120 150 120 133z m1235 -116 c17 -18 17 -21 1 -45 -27 -40 -76 -28 -76 20 0 44 44 59 75 25z m-985 -200 c0 -64 186 -727 268 -955 105 -292 229 -559 329 -708 82 -121 206 -261 291 -327 39 -30 71 -58 71 -61 1 -4 -12 -12 -29 -19 -25 -10 -57 -7 -217 23 -103 19 -234 43 -290 53 -84 14 -103 21 -103 35 0 9 -8 26 -17 37 -14 16 -43 25 -128 38 -61 9 -124 25 -141 36 l-31 18 -7 753 c-3 413 -9 830 -12 925 -5 124 -3 172 5 172 6 0 11 -9 11 -20z m963 -192 c13 -407 20 -1755 10 -1761 -15 -9 -177 154 -251 251 -88 117 -165 252 -233 408 l-59 134 72 107 c87 133 219 401 288 587 28 77 71 209 96 295 56 193 52 181 62 181 5 0 12 -91 15 -202z m-163 5 c-53 -186 -140 -413 -222 -578 -42 -83 -136 -245 -163 -280 -20 -26 -23 -21 -76 125 -63 177 -64 163 27 272 44 52 162 198 264 326 102 127 186 227 188 222 2 -5 -6 -44 -18 -87z m1145 13 c0 -36 -26 -56 -49 -37 -16 14 -22 52 -9 65 4 4 19 6 33 4 20 -2 25 -8 25 -32z m-22 -198 c8 -43 29 -1384 25 -1562 -2 -91 -7 -141 -14 -143 -18 -6 -132 96 -197 177 -82 102 -136 188 -205 327 -95 190 -92 170 -34 250 99 136 192 321 276 546 37 99 126 398 126 423 0 28 18 13 23 -18z m-826 -170 c66 -273 175 -623 263 -844 103 -258 235 -482 369 -626 l69 -74 -5 -62 c-7 -74 5 -71 -188 -39 -116 20 -130 25 -133 44 -2 11 -11 28 -21 37 -21 19 -217 56 -296 56 -32 0 -58 7 -71 18 l-22 17 -6 803 c-4 441 -3 802 1 802 5 0 23 -60 40 -132z m673 10 c-50 -172 -130 -378 -202 -521 -55 -110 -138 -239 -151 -234 -6 2 -31 62 -56 135 -33 95 -43 136 -36 146 6 8 55 70 110 137 55 68 156 193 224 278 69 85 126 150 128 144 3 -7 -5 -45 -17 -85z m-5361 -263 c189 -18 393 -47 531 -77 117 -25 299 -82 364 -115 73 -37 154 -118 187 -188 28 -57 37 -100 22 -93 -5 2 -52 24 -105 50 -218 106 -551 178 -987 213 -204 17 -612 19 -786 5 -290 -25 -562 -76 -702 -132 -34 -14 -65 -23 -68 -20 -10 10 -5 173 6 195 23 45 55 68 118 88 131 40 375 76 631 93 122 8 635 -4 789 -19z m5665 -172 c46 -177 124 -421 177 -556 88 -222 217 -442 313 -537 26 -24 46 -47 46 -51 0 -4 -20 -4 -45 -1 -25 2 -45 1 -45 -4 0 -21 99 -67 183 -85 50 -11 94 -22 99 -25 11 -7 10 -81 -1 -88 -10 -7 -483 68 -500 79 -6 3 -11 26 -11 51 0 41 2 44 27 44 14 0 54 -5 88 -11 70 -12 135 -9 100 5 -11 4 -58 25 -105 46 -47 22 -96 42 -110 45 -14 3 -74 1 -135 -4 -60 -6 -112 -8 -116 -3 -8 8 -17 1242 -9 1242 3 0 22 -66 44 -147z m-6009 -288 l0 -180 -135 -7 c-74 -4 -141 -5 -147 -3 -10 3 -13 49 -13 183 0 98 3 182 7 186 4 3 70 5 147 4 l141 -3 0 -180z m358 166 c4 -4 6 -88 5 -187 l-3 -179 -118 4 c-65 1 -130 6 -145 10 l-27 7 -3 169 c-1 93 0 176 3 184 5 12 28 13 143 7 75 -4 140 -11 145 -15z m-725 -173 l-3 -182 -40 -7 c-22 -4 -78 -8 -125 -10 l-85 -4 -3 174 c-2 114 1 178 8 185 12 12 91 22 188 25 l62 1 -2 -182z m997 148 l80 -11 3 -174 c1 -96 -1 -178 -5 -181 -12 -10 -253 16 -265 28 -12 12 -15 333 -3 352 6 10 23 9 190 -14z m-1324 -43 c1 -27 1 -109 2 -183 l0 -135 -109 -16 c-60 -9 -112 -15 -116 -12 -5 2 -8 80 -8 173 0 122 3 171 12 176 15 9 164 42 196 43 20 1 22 -4 23 -46z m1600 -4 c57 -12 110 -26 117 -31 9 -8 12 -54 12 -170 0 -118 -3 -160 -12 -163 -7 -2 -65 4 -128 13 l-115 18 -3 164 c-3 164 0 190 16 190 5 0 56 -9 113 -21z m-1896 -189 l0 -172 -70 -18 c-38 -10 -74 -16 -78 -13 -10 6 3 325 14 337 10 12 111 46 124 42 6 -2 10 -69 10 -176z m2189 109 c47 -17 88 -36 93 -42 4 -7 7 -126 5 -266 l-3 -254 -92 8 c-51 4 -95 9 -99 12 -10 5 -11 557 -1 566 8 9 1 11 97 -24z m226 -114 c19 -14 37 -31 42 -37 4 -7 8 -106 8 -220 l0 -208 -44 0 c-24 0 -48 6 -54 13 -10 12 -18 242 -14 395 2 92 8 97 62 57z m270 -100 c228 -44 650 -152 650 -167 0 -5 -8 -11 -17 -15 -10 -3 -25 -12 -33 -19 -12 -10 -31 -10 -95 1 -44 7 -197 32 -340 55 -143 22 -270 45 -282 50 -19 8 -23 17 -23 58 0 27 3 52 6 55 4 4 16 5 28 2 12 -2 59 -12 106 -20z m-2062 -166 l-3 -94 -45 -6 c-25 -4 -81 -8 -125 -10 l-80 -4 -3 98 c-2 72 1 98 10 102 24 8 233 21 241 15 4 -4 6 -49 5 -101z m367 6 l0 -100 -145 0 -145 0 -3 89 c-2 49 0 96 2 103 4 11 35 13 148 11 l143 -3 0 -100z m357 87 c5 -5 8 -49 6 -98 l-3 -89 -145 0 -145 0 -3 89 c-2 49 0 96 3 104 5 13 27 14 142 9 76 -4 141 -11 145 -15z m258 -15 l95 -12 0 -95 c0 -89 -1 -95 -20 -93 -11 1 -73 5 -137 8 l-118 7 0 99 0 99 43 -1 c23 0 85 -6 137 -12z m-1310 -96 c0 -59 -4 -92 -12 -98 -14 -11 -198 -34 -210 -26 -5 2 -8 45 -8 94 0 62 4 91 13 94 20 8 201 32 210 28 4 -2 7 -44 7 -92z m1655 55 l70 -12 3 -83 c2 -46 -1 -87 -5 -91 -10 -8 -223 12 -240 23 -9 6 -13 36 -13 91 0 45 3 85 6 89 7 6 72 0 179 -17z m-1947 -99 c3 -87 3 -87 -25 -98 -15 -5 -50 -11 -77 -12 l-51 -2 -3 45 c-2 25 1 63 5 85 8 37 12 41 63 57 84 26 85 26 88 -75z m3012 -13 c129 -20 241 -42 248 -47 13 -10 18 -173 5 -180 -8 -4 -689 80 -710 88 -9 3 -13 33 -13 103 0 54 2 101 5 104 6 5 62 -3 465 -68z m658 -128 c1 -78 -2 -144 -7 -149 -11 -11 -269 21 -288 36 -9 6 -13 41 -13 108 0 67 4 100 13 106 12 8 250 42 277 39 12 -1 15 -25 18 -140z m217 116 l100 -18 0 -136 c0 -86 -4 -141 -11 -148 -13 -13 -191 6 -211 23 -9 7 -13 49 -13 147 0 75 3 140 7 143 8 9 10 9 128 -11z m-2540 -102 c478 -24 1180 -96 2325 -241 366 -46 923 -115 1059 -131 l94 -11 32 35 c27 29 34 47 40 99 12 100 17 109 66 109 53 0 171 -20 183 -30 5 -5 -14 -51 -43 -106 -29 -53 -51 -106 -49 -118 4 -24 6 -25 283 -61 489 -63 599 -78 865 -115 157 -22 396 -55 532 -74 136 -19 252 -37 257 -41 12 -7 15 -102 4 -108 -5 -2 -62 2 -128 9 -213 23 -850 92 -1240 134 -209 22 -540 58 -735 80 -888 99 -2048 221 -2600 275 -245 23 -654 53 -904 66 -257 13 -884 7 -1091 -11 -259 -22 -551 -65 -683 -100 -40 -11 -82 -20 -93 -20 -20 0 -21 4 -15 52 8 59 24 94 58 124 37 34 75 50 188 78 377 93 1005 135 1595 106z m3110 -94 c171 -30 324 -56 340 -58 28 -3 30 -6 28 -38 -2 -19 -5 -54 -8 -77 -6 -41 -8 -43 -39 -43 -41 0 -336 39 -347 46 -10 6 -1 33 19 57 22 25 4 39 -44 35 -37 -3 -39 -5 -44 -43 -3 -22 -9 -40 -15 -40 -42 1 -244 30 -257 37 -15 7 -18 23 -18 92 0 45 3 86 7 90 4 4 21 5 38 2 16 -3 170 -30 340 -60z m1067 -196 c154 -28 284 -53 289 -56 5 -3 9 -28 9 -56 l0 -51 -57 6 c-32 3 -181 23 -330 44 -250 35 -273 39 -273 57 0 28 48 106 66 106 8 0 141 -23 296 -50z m-4497 -160 l0 -155 -145 0 -145 0 -3 149 c-2 113 1 152 10 158 7 4 74 7 148 6 l135 -3 0 -155z m353 144 c10 -3 12 -39 10 -156 l-3 -153 -134 2 c-73 1 -139 4 -147 7 -11 4 -14 36 -14 154 0 82 3 151 6 155 6 6 259 -2 282 -9z m-710 -147 c3 -147 3 -147 -21 -156 -13 -5 -75 -11 -138 -12 l-114 -3 0 155 0 154 30 6 c17 4 77 6 135 5 l105 -1 3 -148z m-343 -18 l0 -154 -70 -8 c-38 -4 -75 -5 -82 -3 -18 7 -19 291 0 303 12 8 121 22 142 18 6 -1 10 -61 10 -156z m1765 120 c575 -48 1518 -144 2805 -284 325 -36 700 -76 835 -90 252 -26 882 -94 1119 -120 73 -9 137 -18 142 -21 14 -8 10 -54 -4 -60 -8 -3 -220 15 -473 40 -252 25 -652 63 -889 86 -236 22 -542 51 -680 65 -497 49 -2048 181 -2635 225 -146 10 -366 24 -490 30 -124 6 -254 15 -290 18 l-65 7 -3 59 c-5 94 -11 90 141 82 72 -4 292 -20 487 -37z m3975 -54 l0 -80 -45 3 c-25 2 -61 7 -80 11 l-35 7 0 64 0 65 55 6 c30 3 66 6 80 5 24 -1 25 -3 25 -81z m1070 -65 l0 -145 -45 -4 c-54 -4 -258 18 -282 31 -16 7 -18 24 -18 119 0 78 4 111 13 114 15 6 285 33 312 31 19 -1 20 -8 20 -146z m-880 126 l50 -11 0 -80 0 -80 -65 3 c-35 2 -70 8 -77 14 -14 11 -19 149 -6 161 9 9 38 7 98 -7z m-6155 -145 c0 -83 -3 -152 -7 -154 -5 -3 -37 -6 -73 -8 l-65 -4 0 150 0 150 30 6 c17 4 49 7 73 8 l42 1 0 -149z m-215 -26 l0 -149 -28 -7 c-15 -4 -45 -9 -65 -11 l-37 -3 0 150 0 150 55 11 c30 7 60 11 65 10 6 -2 10 -60 10 -151z m-207 -250 c1 -203 -2 -363 -7 -368 -5 -5 -45 -11 -90 -14 l-81 -6 2 354 3 354 75 22 c41 12 80 21 85 19 6 -2 11 -133 13 -361z m6922 306 l105 -16 3 -44 c2 -24 0 -47 -5 -52 -4 -4 -75 2 -158 15 l-150 22 -3 38 c-2 21 -1 45 2 53 6 15 -2 16 206 -16z m1006 -100 c194 -32 357 -62 363 -65 15 -10 14 -85 -2 -92 -11 -4 -371 39 -642 77 -111 16 -115 19 -115 84 0 50 2 55 23 55 12 0 180 -27 373 -59z m-5844 -2 c16 -8 18 -32 20 -207 l3 -197 25 0 25 0 5 200 5 200 110 -3 c61 -1 129 -5 151 -7 l41 -6 6 -59 c4 -32 4 -145 0 -250 l-6 -191 -326 7 c-179 3 -332 7 -338 10 -10 2 -13 63 -13 257 0 140 2 256 5 258 8 8 270 -3 287 -12z m693 -37 l90 -7 0 -200 0 -200 -56 -5 c-58 -5 -99 -29 -99 -57 0 -11 -17 -13 -82 -11 l-83 3 -3 235 c-1 129 -1 239 2 245 4 11 39 11 231 -3z m468 -39 c11 -6 9 -451 -2 -458 -6 -3 -60 -2 -121 1 -112 7 -112 7 -131 38 -17 28 -19 53 -19 235 l0 204 133 -8 c72 -4 135 -9 140 -12z m272 -22 l60 -6 0 -220 0 -220 -125 4 c-69 1 -128 5 -132 8 -9 5 -11 437 -3 445 6 6 85 1 200 -11z m345 -30 l35 -7 3 -174 c2 -96 0 -190 -3 -207 l-6 -33 -118 0 c-99 0 -120 3 -125 16 -8 20 -8 372 0 401 6 22 9 23 93 17 47 -4 102 -9 121 -13z m-2872 -189 c2 -169 0 -193 -14 -199 -8 -3 -70 -6 -137 -7 l-122 -1 0 195 0 195 75 6 c41 3 102 5 135 5 l60 -1 3 -193z m360 5 c2 -172 1 -188 -15 -195 -10 -4 -76 -7 -148 -7 l-130 0 -3 185 c-1 101 0 190 3 197 3 11 37 13 147 11 l143 -3 3 -188z m352 177 c7 -7 10 -72 8 -190 l-3 -179 -145 0 -145 0 -3 180 c-1 98 0 186 3 193 4 11 32 13 140 10 77 -2 139 -8 145 -14z m5873 -5 c40 -7 78 -16 85 -22 9 -7 12 -68 12 -243 l0 -234 -27 -12 c-16 -7 -77 -12 -143 -13 l-115 0 -3 255 c-1 140 0 260 3 267 6 16 91 17 188 2z m-6928 -199 l0 -195 -80 0 -80 0 -3 184 c-2 130 1 188 9 198 9 10 31 13 83 11 l71 -3 0 -195z m3423 28 l-3 -173 -40 0 -40 0 -3 160 c-1 87 0 165 2 172 3 8 22 13 46 13 l40 0 -2 -172z m-3653 -39 l0 -194 -64 -7 c-35 -4 -68 -5 -73 -2 -4 3 -8 88 -8 188 0 137 3 186 13 194 11 9 94 21 122 17 6 -1 10 -74 10 -196z m3930 182 l40 -7 0 -194 0 -195 -103 -3 c-102 -3 -102 -3 -112 23 -10 26 -15 377 -5 386 5 6 125 -1 180 -10z m3538 -18 c4 -2 7 -51 7 -109 l0 -105 -72 3 -73 3 -3 99 c-1 55 0 106 3 114 4 11 18 12 68 7 34 -4 65 -9 70 -12z m-7673 -178 l0 -185 -27 -11 c-15 -5 -45 -9 -67 -7 l-41 3 0 185 0 185 35 6 c19 4 50 7 68 8 l32 1 0 -185z m4468 162 c11 -9 13 -48 9 -191 l-5 -181 -91 -3 c-138 -4 -131 -15 -131 202 0 100 3 186 7 190 11 11 195 -4 211 -17z m247 -16 l30 -7 3 -168 c2 -123 -1 -172 -10 -183 -10 -12 -30 -14 -93 -11 -44 2 -86 8 -93 12 -9 5 -12 56 -12 185 0 98 2 180 5 183 7 7 129 -1 170 -11z m3157 1 c5 -5 7 -51 6 -103 l-3 -94 -41 -3 c-22 -2 -52 2 -67 7 -27 10 -27 11 -27 112 l0 102 61 -6 c34 -3 65 -9 71 -15z m160 -18 c10 -7 10 -191 1 -197 -5 -3 -26 -2 -48 2 l-40 6 -3 89 c-2 49 0 96 3 104 4 11 14 12 43 7 20 -4 40 -9 44 -11z m-3107 -144 l0 -145 -40 0 -40 0 -3 134 c-1 74 0 141 3 149 3 9 18 12 42 10 l38 -3 0 -145z m277 112 c5 -5 7 -80 6 -168 l-3 -159 -95 0 -95 0 -3 160 c-1 87 0 166 3 174 4 11 22 13 92 7 48 -3 91 -10 95 -14z m256 -25 c9 -7 12 -48 10 -161 l-3 -151 -92 -3 -93 -3 -2 78 c-3 94 1 233 7 251 4 10 23 11 82 6 43 -4 84 -11 91 -17z m245 -19 c16 -8 17 -24 15 -156 l-3 -147 -72 -3 c-114 -5 -113 -6 -113 158 0 76 2 145 6 153 4 11 20 13 77 9 40 -2 80 -9 90 -14z m182 -143 l0 -130 -40 0 -40 0 -3 119 c-1 66 0 126 3 134 3 9 18 12 42 10 l38 -3 0 -130z m253 109 c9 -2 12 -40 12 -143 0 -77 -3 -142 -7 -144 -5 -2 -44 -1 -88 2 l-80 6 0 130 c0 72 3 138 7 148 7 15 16 17 75 11 38 -3 74 -7 81 -10z m220 -20 c10 -3 12 -35 10 -136 l-3 -133 -75 0 -75 0 -3 129 c-1 72 -1 135 2 142 3 9 24 11 68 7 35 -2 69 -6 76 -9z m220 -20 c10 -3 12 -34 10 -131 l-3 -128 -75 0 -75 0 -3 124 c-1 69 -1 130 2 137 3 9 24 11 68 7 35 -2 69 -6 76 -9z m157 -124 l0 -105 -37 -3 -38 -3 0 111 0 111 38 -3 37 -3 0 -105z m180 90 l26 -10 -3 -112 -3 -113 -37 -3 c-26 -2 -46 3 -68 19 -29 22 -30 25 -30 107 0 46 5 92 10 103 12 21 61 26 105 9z m191 -128 l1 -113 -51 3 -51 3 -3 99 c-1 55 0 106 3 113 3 10 19 13 52 11 l48 -3 1 -113z m569 -22 l0 -105 -54 -3 c-80 -5 -91 9 -91 118 0 48 3 90 7 94 4 4 37 6 73 4 l65 -3 0 -105z m193 84 c9 -3 12 -27 10 -96 l-3 -93 -65 0 -65 0 -3 89 c-2 49 0 96 2 103 4 10 19 12 58 8 29 -4 59 -8 66 -11z m161 -18 c8 -9 11 -45 9 -98 l-3 -83 -45 0 -45 0 -3 84 c-2 46 -1 90 2 98 7 17 70 17 85 -1z m-5324 -68 c3 -24 5 -187 3 -363 l-3 -320 -60 0 -60 0 -3 350 c-1 192 0 356 3 362 3 8 24 13 59 13 l55 0 6 -42z m1170 -343 l0 -340 -55 0 -55 0 -3 330 c-1 181 0 336 3 343 3 9 21 12 57 10 l53 -3 0 -340z m-1420 316 l40 -7 0 -89 0 -90 -975 -6 c-938 -6 -1118 -10 -1774 -45 -164 -8 -304 -13 -312 -10 -10 4 -14 24 -14 71 0 58 2 66 23 75 46 19 614 70 1012 91 427 22 1884 30 2000 10z m928 -17 c231 -6 290 -10 294 -21 3 -7 2 -47 -2 -88 l-7 -75 -321 1 c-177 1 -374 4 -437 8 l-115 6 -3 79 c-2 44 0 86 3 94 5 13 28 14 153 8 81 -3 277 -9 435 -12z m1547 -14 c7 -12 9 -125 8 -322 l-3 -302 -35 -9 c-22 -5 -47 -4 -63 2 l-27 11 0 313 c0 173 3 317 7 320 3 4 28 7 54 7 38 0 51 -4 59 -20z m-420 -19 l215 -6 3 -78 c2 -63 0 -78 -13 -83 -8 -4 -181 -2 -383 2 l-367 9 -3 74 c-2 41 -1 80 2 87 4 11 39 12 168 8 90 -4 260 -9 378 -13z m885 -27 c154 -4 288 -11 298 -16 15 -8 17 -20 15 -75 l-3 -66 -335 2 c-184 1 -338 5 -342 7 -10 6 -11 148 -1 158 5 4 26 5 48 2 22 -3 166 -8 320 -12z m507 0 c12 -7 10 -527 -2 -559 -9 -24 -14 -26 -57 -23 l-48 3 -3 284 c-2 211 1 287 10 298 9 11 23 13 52 9 21 -4 43 -9 48 -12z m691 -43 c4 -5 7 -35 5 -67 l-3 -59 -105 -3 c-58 -1 -193 1 -300 5 l-195 8 -3 69 -3 69 298 -7 c164 -4 302 -11 306 -15z m182 -261 l0 -275 -45 0 -45 0 -3 265 c-1 146 0 271 3 278 3 9 19 12 47 10 l43 -3 0 -275z m500 241 l60 -6 0 -55 0 -55 -235 0 -235 0 -3 63 -3 62 178 -1 c98 -1 205 -4 238 -8z m218 -4 c16 -11 17 -35 15 -252 l-3 -240 -40 0 -40 0 -3 240 c-1 132 0 245 2 252 7 17 47 17 69 0z m567 -16 l145 -6 0 -55 0 -55 -115 -3 c-63 -1 -200 1 -305 5 l-190 8 -3 44 c-5 73 -11 71 165 70 87 -1 223 -4 303 -8z m-6735 -296 l0 -170 -50 0 -50 0 -3 160 c-1 87 0 165 3 173 3 9 19 12 52 10 l48 -3 0 -170z m-1687 -49 c2 -116 -1 -173 -9 -182 -13 -16 -62 -18 -90 -4 -18 10 -19 23 -19 179 0 92 3 171 7 175 4 4 30 6 58 4 l50 -3 3 -169z m8507 -21 l0 -160 -35 0 -35 0 -3 150 c-1 82 0 155 3 163 3 8 17 12 37 10 l33 -3 0 -160z M1292 2376 c-34 -13 -98 -47 -142 -76 -136 -90 -230 -109 -349 -70 -76 24 -98 24 -115 -2 -28 -46 66 -98 190 -106 101 -6 189 18 284 78 118 74 186 102 259 108 84 6 154 -13 236 -64 108 -68 163 -92 233 -104 90 -15 164 -2 252 44 36 18 100 52 144 75 73 38 83 41 160 41 97 -1 131 -12 240 -79 116 -71 155 -83 261 -84 107 -1 150 12 271 85 100 60 156 78 239 78 76 0 120 -15 210 -71 108 -66 159 -88 234 -101 120 -21 171 -5 406 122 70 38 89 44 156 48 43 2 100 -1 127 -8 27 -6 98 -40 156 -75 120 -71 179 -90 281 -89 90 1 152 22 257 86 119 73 176 91 268 86 59 -4 89 -12 140 -38 36 -18 83 -45 105 -59 62 -41 110 -60 185 -73 119 -20 181 -2 402 121 66 36 89 43 152 48 100 8 151 -7 271 -78 132 -79 213 -103 314 -96 89 6 162 33 271 101 86 54 152 76 225 76 75 0 140 -23 242 -84 120 -73 177 -91 283 -91 102 0 158 18 267 83 132 80 154 87 269 87 101 0 102 0 185 -44 201 -106 235 -121 306 -133 91 -15 181 -2 262 39 45 22 57 33 59 55 5 46 -25 52 -105 22 -51 -19 -87 -26 -143 -26 -97 1 -152 18 -265 87 -127 77 -190 98 -295 98 -110 1 -171 -18 -290 -89 -122 -72 -160 -86 -245 -87 -88 -2 -147 18 -251 84 -101 63 -182 89 -285 89 -95 0 -152 -19 -282 -96 -189 -112 -286 -112 -475 3 -124 75 -177 92 -279 93 -102 0 -179 -23 -275 -83 -98 -60 -124 -72 -187 -87 -90 -21 -167 -2 -300 77 -126 74 -185 93 -289 93 -90 0 -158 -23 -267 -89 -92 -57 -120 -69 -192 -82 -80 -15 -165 9 -282 80 -125 76 -185 96 -286 96 -105 -1 -168 -21 -290 -94 -129 -78 -204 -98 -294 -82 -67 13 -119 35 -186 81 -112 77 -224 107 -333 90 -65 -10 -93 -22 -295 -128 -61 -32 -76 -36 -147 -36 -71 0 -86 4 -147 36 -37 20 -104 54 -148 77 -111 58 -188 70 -292 48 -51 -11 -101 -31 -148 -59 -142 -84 -164 -93 -252 -97 -70 -3 -89 0 -135 21 -29 14 -82 44 -117 67 -128 83 -289 105 -419 57z"/> </g></g></svg>
